<?xml version="1.0" encoding="utf-8"?>
<!-- Generator: Adobe Illustrator 15.0.0, SVG Export Plug-In . SVG Version: 6.00 Build 0)  -->
<!DOCTYPE svg PUBLIC "-//W3C//DTD SVG 1.1//EN" "http://www.w3.org/Graphics/SVG/1.1/DTD/svg11.dtd">
<svg version="1.1" id="Layer_1" xmlns="http://www.w3.org/2000/svg" xmlns:xlink="http://www.w3.org/1999/xlink" x="0px" y="0px"
	 width="199px" height="64px" viewBox="-74.734 -28.75 199 64" enable-background="new -74.734 -28.75 199 64" xml:space="preserve"
	>
<g>
	<path d="M-64-20.076h-7.254c-1.91,0-3.48-1.568-3.48-3.479c0-1.91,1.57-3.48,3.48-3.48H-49.2c1.912,0,3.478,1.57,3.478,3.48
		c0,1.911-1.567,3.479-3.478,3.479h-7.254V3.79c0,2.108-1.666,3.776-3.772,3.776C-62.333,7.566-64,5.898-64,3.79V-20.076z"/>
	<path d="M-42.196-15.568c0-2.058,1.666-3.724,3.724-3.724c2.059,0,3.727,1.666,3.727,3.724v1.179
		c1.078-2.55,2.842-4.902,5.046-4.902c2.304,0,3.626,1.521,3.626,3.626c0,1.96-1.276,3.136-2.794,3.48
		c-3.774,0.884-5.878,3.773-5.878,9.067V3.84c0,2.057-1.668,3.723-3.727,3.723c-2.058,0-3.724-1.666-3.724-3.723V-15.568z"/>
	<path d="M-22.742-0.278v-0.096c0-5.734,4.361-8.38,10.586-8.38c2.644,0,4.556,0.441,6.42,1.076v-0.44
		c0-3.088-1.912-4.802-5.636-4.802c-2.061,0-3.725,0.294-5.146,0.734c-0.441,0.147-0.733,0.197-1.078,0.197
		c-1.714,0-3.088-1.324-3.088-3.04c0-1.321,0.834-2.45,2.01-2.892c2.353-0.882,4.9-1.372,8.379-1.372
		c4.069,0,7.012,1.08,8.871,2.942c1.96,1.958,2.845,4.852,2.845,8.38V3.988c0,2.012-1.618,3.58-3.626,3.58
		c-2.156,0-3.576-1.521-3.576-3.088V4.43c-1.814,2.01-4.313,3.334-7.942,3.334C-18.676,7.762-22.742,4.918-22.742-0.278
		 M-5.638-1.99v-1.324c-1.273-0.588-2.941-0.978-4.754-0.978c-3.186,0-5.146,1.272-5.146,3.624v0.102
		c0,2.009,1.668,3.185,4.065,3.185C-7.992,2.616-5.638,0.704-5.638-1.99"/>
	<path d="M20.134,7.811h-0.391c-2.01,0-3.38-1.275-4.214-3.234L7.49-14c-0.195-0.49-0.39-1.126-0.39-1.813
		c0-1.764,1.618-3.479,3.626-3.479s3.088,1.128,3.626,2.646l5.636,15.244l5.734-15.34c0.488-1.275,1.518-2.55,3.479-2.55
		c1.957,0,3.578,1.521,3.578,3.53c0,0.636-0.246,1.422-0.393,1.764L24.348,4.578C23.516,6.488,22.144,7.811,20.134,7.811"/>
	<path d="M39.341-25.271c0-2.156,1.813-3.479,4.164-3.479c2.355,0,4.168,1.322,4.168,3.479v0.098c0,2.158-1.813,3.529-4.168,3.529
		c-2.352,0-4.164-1.371-4.164-3.529V-25.271z M39.783-15.568c0-2.058,1.664-3.724,3.723-3.724s3.725,1.666,3.725,3.724v19.41
		c0,2.057-1.666,3.723-3.725,3.723s-3.723-1.666-3.723-3.723V-15.568z"/>
	<path fill="#80C242" d="M55.267-9.784V-9.88c0-9.754,7.598-17.744,17.984-17.744c5.195,0,8.627,1.176,11.713,3.334
		c0.736,0.538,1.568,1.568,1.568,3.038c0,2.058-1.668,3.724-3.725,3.724c-1.08,0-1.764-0.392-2.303-0.784
		c-2.059-1.47-4.264-2.352-7.5-2.352c-5.488,0-9.852,4.852-9.852,10.684v0.101c0,6.271,4.314,10.878,10.391,10.878
		c2.744,0,5.197-0.686,7.105-2.059V-5.96h-5.098c-1.811,0-3.281-1.422-3.281-3.234c0-1.813,1.469-3.284,3.281-3.284h8.629
		c2.105,0,3.77,1.666,3.77,3.774v8.33c0,2.208-0.832,3.724-2.643,4.802c-2.795,1.719-6.865,3.432-12.006,3.432
		C62.619,7.859,55.267,0.362,55.267-9.784"/>
	<path fill="#80C242" d="M94.906-5.716v-0.099c0-7.546,6.076-13.672,14.264-13.672c8.133,0,14.16,6.028,14.16,13.576v0.098
		c0,7.549-6.074,13.676-14.26,13.676C100.935,7.863,94.906,1.83,94.906-5.716 M115.98-5.716v-0.099c0-3.871-2.795-7.252-6.91-7.252
		c-4.264,0-6.811,3.282-6.811,7.154v0.098c0,3.875,2.791,7.254,6.91,7.254C113.431,1.439,115.98-1.846,115.98-5.716"/>
	<path d="M-43.534,22.625h-3.311c-0.874,0-1.59-0.713-1.59-1.586c0-0.875,0.716-1.59,1.59-1.59h10.068c0.874,0,1.59,0.715,1.59,1.59
		c0,0.873-0.716,1.586-1.59,1.586h-3.31v10.898c0,0.965-0.761,1.725-1.725,1.725c-0.96,0-1.722-0.76-1.722-1.725V22.625H-43.534z"/>
	<path d="M-29.328,21.039c0-0.959,0.762-1.721,1.722-1.721c0.962,0,1.724,0.762,1.724,1.721v4.611h6.354v-4.611
		c0-0.961,0.762-1.723,1.724-1.723s1.723,0.762,1.723,1.723v12.484c0,0.965-0.761,1.725-1.723,1.725s-1.724-0.76-1.724-1.725v-4.699
		h-6.354v4.699c0,0.965-0.762,1.725-1.724,1.725c-0.96,0-1.722-0.76-1.722-1.725V21.039z"/>
	<path d="M-9.84,32.9l5.458-12.33c0.381-0.852,1.076-1.367,2.015-1.367h0.204c0.939,0,1.611,0.516,1.989,1.367l5.46,12.33
		c0.112,0.246,0.181,0.467,0.181,0.693c0,0.918-0.716,1.656-1.634,1.656c-0.805,0-1.343-0.469-1.656-1.186l-1.05-2.463h-6.893
		l-1.096,2.572c-0.294,0.672-0.874,1.076-1.59,1.076c-0.895,0-1.59-0.715-1.59-1.613C-10.042,33.391-9.952,33.146-9.84,32.9
		 M-0.15,28.559l-2.17-5.168l-2.172,5.168H-0.15z"/>
	<path d="M11.684,21.039c0-0.959,0.76-1.721,1.722-1.721c0.96,0,1.723,0.762,1.723,1.721v12.488c0,0.963-0.763,1.723-1.723,1.723
		c-0.962,0-1.722-0.76-1.722-1.723V21.039z"/>
	<path d="M22.4,21.039c0-0.959,0.76-1.721,1.723-1.721c0.962,0,1.723,0.762,1.723,1.721v10.945h6.377
		c0.877,0,1.568,0.693,1.568,1.566c0,0.871-0.695,1.566-1.568,1.566h-8.1c-0.963,0-1.723-0.764-1.723-1.723V21.039z"/>
	<path d="M38.732,32.9l5.461-12.33c0.379-0.852,1.07-1.367,2.014-1.367h0.201c0.941,0,1.613,0.516,1.99,1.367l5.459,12.33
		c0.115,0.246,0.182,0.467,0.182,0.693c0,0.918-0.717,1.656-1.633,1.656c-0.807,0-1.344-0.469-1.654-1.186l-1.055-2.463h-6.891
		l-1.096,2.572c-0.291,0.672-0.873,1.076-1.592,1.076c-0.893,0-1.59-0.715-1.59-1.613C38.529,33.391,38.623,33.146,38.732,32.9
		 M48.423,28.559l-2.172-5.168l-2.172,5.168H48.423z"/>
	<path d="M60.103,21.084c0-0.959,0.758-1.721,1.719-1.721h0.359c0.828,0,1.32,0.4,1.793,1.004l6.645,8.729v-8.078
		c0-0.941,0.762-1.701,1.701-1.701s1.701,0.76,1.701,1.701v12.465c0,0.959-0.762,1.721-1.723,1.721h-0.113
		c-0.828,0-1.32-0.402-1.789-1.008l-6.895-9.041v8.393c0,0.943-0.762,1.703-1.699,1.703c-0.941,0-1.699-0.76-1.699-1.703V21.084z"/>
	<path d="M81.134,21.176c0-0.961,0.76-1.727,1.723-1.727h4.383c4.926,0,8.326,3.381,8.326,7.791v0.045
		c0,4.406-3.4,7.832-8.326,7.832h-4.383c-0.963,0-1.723-0.762-1.723-1.727V21.176z M87.24,32.004c2.82,0,4.721-1.902,4.721-4.676
		v-0.043c0-2.777-1.9-4.725-4.721-4.725h-2.664v9.445h2.664V32.004z"/>
</g>
</svg>
