<?xml version="1.0" encoding="utf-8"?>
<!-- Generator: Adobe Illustrator 15.0.0, SVG Export Plug-In . SVG Version: 6.00 Build 0)  -->
<!DOCTYPE svg PUBLIC "-//W3C//DTD SVG 1.1//EN" "http://www.w3.org/Graphics/SVG/1.1/DTD/svg11.dtd">
<svg version="1.1" id="Layer_1" xmlns="http://www.w3.org/2000/svg" xmlns:xlink="http://www.w3.org/1999/xlink" x="0px" y="0px"
	 width="99.032px" height="32px" viewBox="0 0 99.032 32" enable-background="new 0 0 99.032 32" xml:space="preserve">
<g>
	<path d="M5.367,4.337H1.74C0.785,4.337,0,3.553,0,2.597c0-0.955,0.785-1.74,1.74-1.74h11.027c0.956,0,1.739,0.785,1.739,1.74
		c0,0.956-0.784,1.74-1.739,1.74H9.14v11.933c0,1.054-0.833,1.888-1.886,1.888c-1.054,0-1.887-0.834-1.887-1.888V4.337z"/>
	<path d="M16.269,6.591c0-1.029,0.833-1.862,1.862-1.862s1.863,0.833,1.863,1.862V7.18c0.539-1.275,1.421-2.451,2.523-2.451
		c1.152,0,1.813,0.76,1.813,1.813c0,0.98-0.638,1.568-1.397,1.74c-1.887,0.442-2.939,1.887-2.939,4.534v3.479
		c0,1.028-0.834,1.861-1.863,1.861s-1.862-0.833-1.862-1.861V6.591z"/>
	<path d="M25.996,14.236v-0.048c0-2.867,2.181-4.19,5.293-4.19c1.322,0,2.278,0.221,3.21,0.538v-0.22
		c0-1.544-0.956-2.401-2.818-2.401c-1.03,0-1.862,0.147-2.573,0.367c-0.221,0.074-0.367,0.099-0.539,0.099
		c-0.857,0-1.544-0.662-1.544-1.52c0-0.661,0.417-1.225,1.005-1.446c1.176-0.441,2.45-0.686,4.189-0.686
		c2.035,0,3.506,0.54,4.436,1.471c0.98,0.979,1.422,2.426,1.422,4.19v5.979c0,1.006-0.809,1.79-1.813,1.79
		c-1.078,0-1.788-0.76-1.788-1.544v-0.025c-0.907,1.005-2.156,1.667-3.971,1.667C28.029,18.256,25.996,16.834,25.996,14.236
		 M34.548,13.38v-0.662c-0.637-0.294-1.471-0.489-2.377-0.489c-1.593,0-2.573,0.636-2.573,1.812v0.051
		c0,1.004,0.834,1.592,2.033,1.592C33.371,15.683,34.548,14.727,34.548,13.38"/>
	<path d="M47.434,18.28h-0.195c-1.005,0-1.69-0.637-2.107-1.617l-4.02-9.288c-0.098-0.245-0.195-0.563-0.195-0.906
		c0-0.882,0.809-1.74,1.813-1.74s1.544,0.564,1.813,1.323l2.818,7.622l2.867-7.67c0.244-0.638,0.759-1.275,1.739-1.275
		c0.979,0,1.789,0.76,1.789,1.765c0,0.318-0.122,0.711-0.196,0.882l-4.019,9.288C49.125,17.619,48.439,18.28,47.434,18.28"/>
	<path d="M57.037,1.739C57.037,0.661,57.944,0,59.12,0c1.177,0,2.083,0.661,2.083,1.739v0.049c0,1.079-0.906,1.765-2.083,1.765
		c-1.176,0-2.083-0.686-2.083-1.765V1.739z M57.258,6.591c0-1.029,0.833-1.862,1.862-1.862s1.862,0.833,1.862,1.862v9.705
		c0,1.028-0.833,1.861-1.862,1.861s-1.862-0.833-1.862-1.861V6.591z"/>
	<path fill="#80C242" d="M65,9.483V9.435c0-4.877,3.799-8.872,8.993-8.872c2.597,0,4.313,0.588,5.856,1.667
		c0.368,0.269,0.784,0.784,0.784,1.519c0,1.029-0.833,1.862-1.862,1.862c-0.54,0-0.882-0.196-1.151-0.392
		c-1.03-0.735-2.132-1.176-3.75-1.176c-2.744,0-4.926,2.426-4.926,5.342v0.05c0,3.136,2.157,5.439,5.195,5.439
		c1.372,0,2.599-0.343,3.553-1.029v-2.45h-2.549c-0.905,0-1.641-0.711-1.641-1.617c0-0.907,0.735-1.642,1.641-1.642h4.314
		c1.053,0,1.886,0.833,1.886,1.887v4.165c0,1.104-0.416,1.862-1.322,2.401c-1.397,0.859-3.432,1.715-6.003,1.715
		C68.676,18.304,65,14.556,65,9.483"/>
	<path fill="#80C242" d="M84.82,11.517v-0.049c0-3.773,3.038-6.836,7.131-6.836c4.067,0,7.081,3.014,7.081,6.788v0.049
		c0,3.774-3.038,6.838-7.13,6.838C87.835,18.306,84.82,15.29,84.82,11.517 M95.357,11.517v-0.049c0-1.936-1.397-3.626-3.455-3.626
		c-2.132,0-3.406,1.641-3.406,3.577v0.049c0,1.937,1.396,3.627,3.455,3.627C94.083,15.095,95.357,13.452,95.357,11.517"/>
	<path d="M15.6,25.688h-1.655c-0.437,0-0.795-0.357-0.795-0.794s0.358-0.795,0.795-0.795h5.034c0.437,0,0.795,0.358,0.795,0.795
		s-0.358,0.794-0.795,0.794h-1.655v5.449c0,0.482-0.38,0.862-0.862,0.862c-0.48,0-0.861-0.38-0.861-0.862V25.688z"/>
	<path d="M22.703,24.895c0-0.48,0.381-0.861,0.861-0.861c0.481,0,0.862,0.381,0.862,0.861V27.2h3.177v-2.306
		c0-0.48,0.381-0.861,0.862-0.861s0.861,0.381,0.861,0.861v6.243c0,0.482-0.38,0.862-0.861,0.862s-0.862-0.38-0.862-0.862v-2.35
		h-3.177v2.35c0,0.482-0.381,0.862-0.862,0.862c-0.48,0-0.861-0.38-0.861-0.862V24.895z"/>
	<path d="M32.447,30.825l2.729-6.165c0.19-0.425,0.538-0.683,1.007-0.683h0.102c0.47,0,0.806,0.258,0.995,0.683l2.73,6.165
		c0.056,0.123,0.09,0.234,0.09,0.347c0,0.459-0.358,0.828-0.817,0.828c-0.402,0-0.671-0.235-0.828-0.593l-0.525-1.231h-3.446
		l-0.548,1.286C33.789,31.798,33.499,32,33.141,32c-0.447,0-0.795-0.357-0.795-0.807C32.346,31.07,32.391,30.948,32.447,30.825
		 M37.292,28.654l-1.085-2.584l-1.086,2.584H37.292z"/>
	<path d="M43.209,24.895c0-0.48,0.38-0.861,0.861-0.861c0.48,0,0.861,0.381,0.861,0.861v6.243c0,0.482-0.381,0.862-0.861,0.862
		c-0.481,0-0.861-0.38-0.861-0.862V24.895z"/>
	<path d="M48.567,24.895c0-0.48,0.38-0.861,0.861-0.861s0.862,0.381,0.862,0.861v5.472h3.188c0.438,0,0.784,0.347,0.784,0.783
		s-0.347,0.783-0.784,0.783h-4.05c-0.481,0-0.861-0.381-0.861-0.861V24.895z"/>
	<path d="M56.733,30.825l2.73-6.165c0.19-0.425,0.536-0.683,1.007-0.683h0.101c0.47,0,0.806,0.258,0.995,0.683l2.73,6.165
		c0.057,0.123,0.09,0.234,0.09,0.347c0,0.459-0.358,0.828-0.816,0.828c-0.403,0-0.672-0.235-0.828-0.593l-0.526-1.231H58.77
		l-0.548,1.286C58.076,31.798,57.785,32,57.427,32c-0.447,0-0.795-0.357-0.795-0.807C56.632,31.07,56.678,30.948,56.733,30.825
		 M61.578,28.654l-1.086-2.584l-1.085,2.584H61.578z"/>
	<path d="M67.418,24.917c0-0.48,0.38-0.861,0.86-0.861h0.18c0.414,0,0.659,0.201,0.896,0.503l3.322,4.364v-4.039
		c0-0.471,0.381-0.851,0.851-0.851s0.85,0.38,0.85,0.851v6.232c0,0.48-0.38,0.86-0.861,0.86h-0.056c-0.414,0-0.66-0.2-0.895-0.503
		l-3.447-4.521v4.197c0,0.471-0.381,0.851-0.85,0.851c-0.47,0-0.85-0.38-0.85-0.851V24.917z"/>
	<path d="M77.934,24.963c0-0.481,0.38-0.863,0.861-0.863h2.192c2.462,0,4.163,1.69,4.163,3.895v0.022
		c0,2.204-1.701,3.916-4.163,3.916h-2.192c-0.481,0-0.861-0.38-0.861-0.862V24.963z M80.987,30.377c1.41,0,2.36-0.951,2.36-2.338
		v-0.022c0-1.388-0.95-2.362-2.36-2.362h-1.332v4.723H80.987z"/>
</g>
</svg>
