<?xml version="1.0" encoding="utf-8"?>
<!-- Generator: Adobe Illustrator 15.0.0, SVG Export Plug-In . SVG Version: 6.00 Build 0)  -->
<!DOCTYPE svg PUBLIC "-//W3C//DTD SVG 1.1//EN" "http://www.w3.org/Graphics/SVG/1.1/DTD/svg11.dtd">
<svg version="1.1" id="Layer_1" xmlns="http://www.w3.org/2000/svg" xmlns:xlink="http://www.w3.org/1999/xlink" x="0px" y="0px"
	 width="100px" height="32px" viewBox="0 0 100 32" enable-background="new 0 0 100 32" xml:space="preserve">
<g>
	<path fill="#FFFFFF" d="M5.366,4.337H1.739C0.783,4.337,0,3.553,0,2.597c0-0.955,0.783-1.738,1.739-1.738h11.026
		c0.957,0,1.74,0.783,1.74,1.738c0,0.956-0.783,1.74-1.74,1.74H9.138v11.932c0,1.055-0.833,1.887-1.885,1.887
		c-1.054,0-1.887-0.832-1.887-1.887V4.337z"/>
	<path fill="#FFFFFF" d="M16.269,6.591c0-1.029,0.833-1.862,1.862-1.862s1.862,0.833,1.862,1.862v0.587
		c0.539-1.273,1.421-2.449,2.524-2.449c1.151,0,1.813,0.759,1.813,1.813c0,0.98-0.637,1.568-1.397,1.74
		c-1.886,0.441-2.939,1.887-2.939,4.533v3.48c0,1.03-0.833,1.862-1.862,1.862s-1.862-0.832-1.862-1.862V6.591z"/>
	<path fill="#FFFFFF" d="M25.996,14.236v-0.048c0-2.868,2.182-4.191,5.292-4.191c1.324,0,2.28,0.221,3.21,0.54v-0.221
		c0-1.543-0.955-2.402-2.818-2.402c-1.028,0-1.862,0.147-2.573,0.368c-0.22,0.073-0.367,0.098-0.538,0.098
		c-0.859,0-1.544-0.661-1.544-1.52c0-0.661,0.417-1.225,1.003-1.445c1.177-0.441,2.451-0.686,4.191-0.686
		c2.034,0,3.504,0.539,4.435,1.47c0.98,0.979,1.422,2.425,1.422,4.19v5.979c0,1.005-0.808,1.788-1.814,1.788
		c-1.077,0-1.789-0.76-1.789-1.543v-0.024c-0.905,1.003-2.156,1.666-3.968,1.666C28.028,18.254,25.996,16.833,25.996,14.236
		 M34.546,13.378v-0.661c-0.638-0.294-1.47-0.491-2.376-0.491c-1.592,0-2.572,0.638-2.572,1.814v0.048
		c0,1.006,0.833,1.594,2.034,1.594C33.371,15.682,34.546,14.727,34.546,13.378"/>
	<path fill="#FFFFFF" d="M47.435,18.279h-0.197c-1.004,0-1.691-0.637-2.106-1.617l-4.019-9.288
		c-0.098-0.244-0.198-0.563-0.198-0.906c0-0.881,0.81-1.74,1.814-1.74c1.005,0,1.543,0.563,1.813,1.323l2.817,7.621l2.867-7.669
		c0.246-0.638,0.761-1.274,1.74-1.274s1.788,0.759,1.788,1.764c0,0.319-0.122,0.711-0.195,0.882l-4.018,9.288
		C49.126,17.617,48.438,18.279,47.435,18.279"/>
	<path fill="#FFFFFF" d="M57.039,1.74c0-1.079,0.907-1.74,2.083-1.74c1.177,0,2.082,0.661,2.082,1.74v0.048
		c0,1.079-0.905,1.765-2.082,1.765c-1.176,0-2.083-0.686-2.083-1.765V1.74z M57.26,6.591c0-1.029,0.833-1.862,1.862-1.862
		c1.028,0,1.862,0.833,1.862,1.862v9.703c0,1.03-0.834,1.862-1.862,1.862c-1.029,0-1.862-0.832-1.862-1.862V6.591z"/>
	<path fill="#80C242" d="M65.003,9.482V9.434c0-4.876,3.798-8.87,8.991-8.87c2.598,0,4.313,0.588,5.856,1.666
		c0.368,0.27,0.785,0.785,0.785,1.52c0,1.029-0.834,1.861-1.862,1.861c-0.539,0-0.882-0.195-1.152-0.392
		c-1.029-0.735-2.131-1.176-3.748-1.176c-2.744,0-4.925,2.426-4.925,5.342v0.049c0,3.136,2.155,5.44,5.193,5.44
		c1.372,0,2.598-0.343,3.553-1.029v-2.45h-2.548c-0.907,0-1.642-0.71-1.642-1.618c0-0.907,0.734-1.642,1.642-1.642h4.313
		c1.054,0,1.887,0.833,1.887,1.887v4.166c0,1.102-0.417,1.862-1.323,2.401c-1.396,0.857-3.431,1.716-6.003,1.716
		C68.678,18.305,65.003,14.554,65.003,9.482"/>
	<path fill="#80C242" d="M84.824,11.516v-0.049c0-3.773,3.038-6.836,7.13-6.836c4.068,0,7.081,3.014,7.081,6.787v0.049
		c0,3.774-3.038,6.837-7.13,6.837C87.838,18.305,84.824,15.29,84.824,11.516 M95.36,11.516v-0.049c0-1.936-1.397-3.626-3.455-3.626
		c-2.132,0-3.406,1.642-3.406,3.577v0.049c0,1.936,1.397,3.627,3.455,3.627C94.087,15.094,95.36,13.452,95.36,11.516"/>
	<path fill="#FFFFFF" d="M15.599,25.691h-1.656c-0.436,0-0.793-0.357-0.793-0.793c0-0.438,0.358-0.795,0.793-0.795h5.033
		c0.438,0,0.794,0.357,0.794,0.795c0,0.436-0.357,0.793-0.794,0.793h-1.654v5.447c0,0.48-0.381,0.861-0.862,0.861
		s-0.86-0.381-0.86-0.861V25.691z"/>
	<path fill="#FFFFFF" d="M22.703,24.898c0-0.482,0.379-0.861,0.86-0.861c0.48,0,0.862,0.379,0.862,0.861v2.305h3.175v-2.305
		c0-0.482,0.381-0.861,0.861-0.861c0.481,0,0.862,0.379,0.862,0.861v6.24c0,0.48-0.38,0.861-0.862,0.861
		c-0.48,0-0.861-0.381-0.861-0.861v-2.35h-3.175v2.35c0,0.48-0.381,0.861-0.862,0.861c-0.481,0-0.86-0.381-0.86-0.861V24.898z"/>
	<path fill="#FFFFFF" d="M32.448,30.826l2.729-6.162c0.188-0.426,0.537-0.684,1.005-0.684h0.102c0.47,0,0.805,0.258,0.996,0.684
		l2.729,6.162c0.054,0.123,0.089,0.234,0.089,0.346c0,0.459-0.357,0.828-0.817,0.828c-0.403,0-0.671-0.234-0.827-0.594l-0.526-1.23
		h-3.445l-0.548,1.287C33.789,31.799,33.499,32,33.141,32c-0.448,0-0.795-0.359-0.795-0.807
		C32.346,31.07,32.392,30.949,32.448,30.826 M37.291,28.656l-1.085-2.584l-1.085,2.584H37.291z"/>
	<path fill="#FFFFFF" d="M43.21,24.898c0-0.482,0.379-0.861,0.86-0.861c0.48,0,0.862,0.379,0.862,0.861v6.24
		c0,0.48-0.382,0.861-0.862,0.861c-0.481,0-0.86-0.381-0.86-0.861V24.898z"/>
	<path fill="#FFFFFF" d="M48.568,24.898c0-0.482,0.381-0.861,0.862-0.861c0.48,0,0.86,0.379,0.86,0.861v5.469h3.188
		c0.435,0,0.783,0.346,0.783,0.783c0,0.436-0.349,0.781-0.783,0.781H49.43c-0.481,0-0.862-0.379-0.862-0.861V24.898z"/>
	<path fill="#FFFFFF" d="M56.736,30.826l2.729-6.162c0.189-0.426,0.537-0.684,1.006-0.684h0.102c0.47,0,0.805,0.258,0.996,0.684
		l2.729,6.162c0.055,0.123,0.089,0.234,0.089,0.346c0,0.459-0.357,0.828-0.816,0.828c-0.403,0-0.671-0.234-0.828-0.594l-0.525-1.23
		h-3.445l-0.549,1.287C58.077,31.799,57.787,32,57.43,32c-0.448,0-0.795-0.359-0.795-0.807C56.635,31.07,56.68,30.949,56.736,30.826
		 M61.578,28.656l-1.084-2.584l-1.085,2.584H61.578z"/>
	<path fill="#FFFFFF" d="M67.419,24.92c0-0.48,0.381-0.861,0.861-0.861h0.178c0.414,0,0.661,0.201,0.896,0.504l3.321,4.361v-4.037
		c0-0.471,0.382-0.85,0.852-0.85s0.85,0.379,0.85,0.85v6.229c0,0.482-0.38,0.861-0.862,0.861h-0.055
		c-0.414,0-0.66-0.201-0.895-0.502l-3.445-4.52v4.195c0,0.469-0.381,0.85-0.85,0.85c-0.47,0-0.851-0.381-0.851-0.85V24.92z"/>
	<path fill="#FFFFFF" d="M77.937,24.965c0-0.482,0.379-0.861,0.86-0.861h2.191c2.461,0,4.161,1.689,4.161,3.891v0.023
		c0,2.203-1.7,3.914-4.161,3.914h-2.191c-0.481,0-0.86-0.379-0.86-0.861V24.965z M80.988,30.377c1.41,0,2.36-0.949,2.36-2.336
		v-0.023c0-1.387-0.95-2.359-2.36-2.359h-1.33v4.719H80.988z"/>
</g>
</svg>
