<?xml version="1.0" encoding="utf-8"?>
<!-- Generator: Adobe Illustrator 15.0.0, SVG Export Plug-In . SVG Version: 6.00 Build 0)  -->
<!DOCTYPE svg PUBLIC "-//W3C//DTD SVG 1.1//EN" "http://www.w3.org/Graphics/SVG/1.1/DTD/svg11.dtd">
<svg version="1.1" id="Layer_1" xmlns="http://www.w3.org/2000/svg" xmlns:xlink="http://www.w3.org/1999/xlink" x="0px" y="0px"
	 width="100px" height="32px" viewBox="0 0 100 32" enable-background="new 0 0 100 32" xml:space="preserve">
<g>
	<path fill="#FFFFFF" d="M5.365,11.185H1.739C0.783,11.185,0,10.401,0,9.445C0,8.49,0.783,7.707,1.739,7.707h11.026
		c0.956,0,1.739,0.783,1.739,1.738c0,0.956-0.783,1.739-1.739,1.739H9.139v11.933c0,1.055-0.834,1.887-1.886,1.887
		c-1.054,0-1.888-0.832-1.888-1.887V11.185z"/>
	<path fill="#FFFFFF" d="M16.269,13.439c0-1.029,0.833-1.862,1.862-1.862s1.862,0.833,1.862,1.862v0.587
		c0.539-1.273,1.421-2.449,2.523-2.449c1.151,0,1.813,0.759,1.813,1.813c0,0.98-0.638,1.568-1.397,1.74
		c-1.886,0.44-2.939,1.888-2.939,4.532v3.48c0,1.029-0.833,1.861-1.862,1.861s-1.862-0.832-1.862-1.861V13.439z"/>
	<path fill="#FFFFFF" d="M25.995,21.084v-0.049c0-2.867,2.183-4.19,5.293-4.19c1.323,0,2.28,0.222,3.209,0.54v-0.221
		c0-1.544-0.954-2.402-2.817-2.402c-1.028,0-1.862,0.147-2.572,0.368c-0.221,0.073-0.367,0.098-0.539,0.098
		c-0.858,0-1.544-0.661-1.544-1.52c0-0.661,0.417-1.225,1.004-1.445c1.177-0.44,2.451-0.686,4.19-0.686
		c2.034,0,3.505,0.539,4.435,1.47c0.98,0.979,1.422,2.426,1.422,4.191v5.979c0,1.004-0.808,1.787-1.813,1.787
		c-1.077,0-1.789-0.759-1.789-1.543v-0.024c-0.904,1.004-2.156,1.666-3.968,1.666C28.028,25.103,25.995,23.682,25.995,21.084
		 M34.546,20.227v-0.661c-0.637-0.294-1.469-0.491-2.376-0.491c-1.592,0-2.572,0.639-2.572,1.814v0.048
		c0,1.006,0.833,1.594,2.034,1.594C33.37,22.53,34.546,21.574,34.546,20.227"/>
	<path fill="#FFFFFF" d="M47.435,25.127h-0.196c-1.004,0-1.691-0.637-2.106-1.617l-4.019-9.287
		c-0.098-0.244-0.197-0.563-0.197-0.906c0-0.881,0.81-1.739,1.813-1.739c1.005,0,1.544,0.563,1.814,1.322l2.817,7.622l2.866-7.67
		c0.246-0.638,0.761-1.274,1.74-1.274s1.788,0.759,1.788,1.764c0,0.318-0.122,0.711-0.195,0.882l-4.019,9.287
		C49.126,24.466,48.438,25.127,47.435,25.127"/>
	<path fill="#FFFFFF" d="M57.039,8.588c0-1.079,0.907-1.74,2.083-1.74s2.082,0.661,2.082,1.74v0.048
		c0,1.079-0.906,1.766-2.082,1.766s-2.083-0.687-2.083-1.766V8.588z M57.26,13.439c0-1.029,0.833-1.862,1.862-1.862
		c1.028,0,1.862,0.833,1.862,1.862v9.703c0,1.029-0.834,1.861-1.862,1.861c-1.029,0-1.862-0.832-1.862-1.861V13.439z"/>
	<path fill="#80C242" d="M65.003,16.33v-0.049c0-4.876,3.798-8.869,8.991-8.869c2.599,0,4.313,0.588,5.856,1.665
		c0.368,0.271,0.785,0.785,0.785,1.52c0,1.029-0.834,1.861-1.862,1.861c-0.539,0-0.882-0.195-1.152-0.392
		c-1.028-0.735-2.131-1.176-3.748-1.176c-2.744,0-4.925,2.426-4.925,5.342v0.049c0,3.137,2.155,5.44,5.193,5.44
		c1.372,0,2.598-0.343,3.553-1.029v-2.45h-2.547c-0.908,0-1.643-0.711-1.643-1.618c0-0.906,0.734-1.642,1.643-1.642h4.312
		c1.054,0,1.887,0.834,1.887,1.888v4.165c0,1.103-0.417,1.863-1.323,2.401c-1.396,0.857-3.43,1.716-6.003,1.716
		C68.678,25.152,65.003,21.402,65.003,16.33"/>
	<path fill="#80C242" d="M84.824,18.364v-0.049c0-3.773,3.038-6.837,7.13-6.837c4.068,0,7.081,3.015,7.081,6.787v0.05
		c0,3.774-3.038,6.837-7.13,6.837C87.837,25.152,84.824,22.138,84.824,18.364 M95.36,18.364v-0.049c0-1.936-1.397-3.627-3.455-3.627
		c-2.132,0-3.406,1.643-3.406,3.577v0.05c0,1.937,1.397,3.627,3.455,3.627C94.087,21.942,95.36,20.301,95.36,18.364"/>
</g>
</svg>
